#!OML:ASF F:\VICON\USERDATA\INSTALL\rory3\rory3.ASF
:FULLY-SPECIFIED
:DEGREES
66
root 0.633897 17.7582 -14.5957 -2.45239 -2.81716 -2.82826
lowerback 7.39008 -0.0064156 0.72054
upperback 1.18514 0.147772 3.14888
thorax -2.92613 0.0782541 2.83725
lowerneck -13.7221 -2.43675 -9.90103
upperneck 23.4925 -2.35507 5.3214
head 9.90863 -1.37438 3.24564
rclavicle 5.96354e-015 -2.3059e-014
rhumerus -34.0983 -11.4254 -77.5995
rradius 26.1205
rwrist 8.94832
rhand -11.9359 10.8336
rfingers 7.12502
rthumb 14.1188 -18.6667
lclavicle 5.96354e-015 -2.3059e-014
lhumerus -29.2477 2.87935 84.8927
lradius 32.4222
lwrist -12.614
lhand -11.3284 27.1563
lfingers 7.12502
lthumb 14.7041 56.6148
rfemur -4.16916 1.6034 29.0337
rtibia 16.2893
rfoot -6.8379 0.0540485
rtoes 8.02232
lfemur -17.8132 7.27815 -15.6001
ltibia 70.5129
lfoot 3.39267 0.285465
ltoes -10.2684
67
root 0.632191 17.752 -14.4285 -2.31027 -2.91699 -3.01322
lowerback 7.26991 0.122443 1.05177
upperback 1.19818 0.338843 3.06351
thorax -2.85157 0.169546 2.54238
lowerneck -13.8219 -2.51957 -9.79388
upperneck 23.4808 -2.47112 5.26162
head 9.9315 -1.4235 3.19101
rclavicle 1.16041e-014 2.22639e-014
rhumerus -33.3691 -10.9984 -78.0351
rradius 26.2592
rwrist 8.43224
rhand -11.591 11.2385
rfingers 7.12502
rthumb 14.4511 -18.2384
lclavicle 1.16041e-014 2.22639e-014
lhumerus -29.6368 2.74033 84.9482
lradius 32.539
lwrist -12.366
lhand -10.9975 27.1655
lfingers 7.12502
lthumb 15.0229 56.6005
rfemur -3.74829 1.49249 29.2299
rtibia 16.4733
rfoot -7.48069 0.141566
rtoes 8.20242
lfemur -19.0842 7.34732 -15.4853
ltibia 70.4415
lfoot 2.64871 0.249275
ltoes -7.94163
68
root 0.629245 17.7358 -14.2668 -2.16739 -3.12561 -3.33313
lowerback 7.15317 0.267971 1.45867
upperback 1.27874 0.556475 3.04099
thorax -2.70705 0.273738 2.26864
lowerneck -13.9431 -2.58176 -9.72687
upperneck 23.405 -2.54927 5.22059
head 9.93293 -1.45516 3.15336
rclavicle 7.1314e-015 4.21423e-014
rhumerus -32.6109 -10.4053 -78.529
rradius 26.5733
rwrist 7.67204
rhand -11.8331 12.0392
rfingers 7.12502
rthumb 14.2178 -17.4541
lclavicle 7.1314e-015 4.21423e-014
lhumerus -29.881 2.54272 85.037
lradius 32.4919
lwrist -11.9674
lhand -11.2148 26.364
lfingers 7.12502
lthumb 14.8136 55.8145
rfemur -3.38287 1.65035 29.6039
rtibia 16.6996
rfoot -8.03694 0.0558527
rtoes 8.66499
lfemur -20.3928 7.50145 -15.2055
ltibia 70.2935
lfoot 2.01738 0.217255
ltoes -5.77575
69
root 0.626131 17.7164 -14.1099 -2.03587 -3.50276 -3.65686
lowerback 7.27392 0.415044 1.76338
upperback 1.32787 0.779938 3.11355
thorax -2.72714 0.382389 2.1509
lowerneck -14.3548 -2.64866 -9.81509
upperneck 23.5212 -2.56202 5.15123
head 10.0561 -1.47358 3.14284
rclavicle -1.16041e-014 -2.38542e-014
rhumerus -31.7173 -9.63941 -78.8926
rradius 26.7321
rwrist 7.46232
rhand -12.621 13.0414
rfingers 7.12502
rthumb 13.4585 -16.5038
lclavicle -1.16041e-014 -2.38542e-014
lhumerus -30.1238 2.72762 85.1229
lradius 32.4251
lwrist -11.7646
lhand -11.3316 25.4692
lfingers 7.12502
lthumb 14.701 54.928
rfemur -3.05535 1.96182 29.9944
rtibia 16.9836
rfoot -8.64418 -0.0222091
rtoes 9.05074
lfemur -21.6716 7.78458 -14.9048
ltibia 70.0269
lfoot 1.20046 0.0725943
ltoes -4.04035
70
root 0.624806 17.7 -13.9569 -1.90554 -3.7139 -3.90395
lowerback 7.45461 0.505395 2.0142
upperback 1.31462 0.929088 3.17458
thorax -2.84244 0.454198 2.05779
lowerneck -14.5539 -2.65728 -9.97428
upperneck 23.4107 -2.5228 5.20605
head 10.0548 -1.45885 3.19193
rclavicle -4.52235e-015 -1.90833e-014
rhumerus -30.97 -8.87413 -79.1641
rradius 27.2343
rwrist 7.94903
rhand -12.8936 12.6354
rfingers 7.12502
rthumb 13.1958 -16.927
lclavicle -4.52235e-015 -1.90833e-014
lhumerus -30.4612 2.98278 85.2196
lradius 32.4097
lwrist -11.6766
lhand -10.9682 25.3605
lfingers 7.12502
lthumb 15.0511 54.7934
rfemur -2.76603 2.04156 30.2783
rtibia 17.3708
rfoot -9.30313 -0.0483601
rtoes 9.37088
lfemur -23.0077 7.84971 -14.6919
ltibia 69.6008
lfoot 0.996749 0.246099
ltoes -1.62731
71
root 0.627465 17.6812 -13.7982 -1.83912 -3.76541 -3.96594
lowerback 7.53011 0.55279 2.135
upperback 1.28766 1.00514 3.14846
thorax -2.91155 0.490519 1.95473
lowerneck -14.469 -2.5907 -10.013
upperneck 23.1762 -2.41782 5.18869
head 9.94593 -1.4122 3.20173
rclavicle 1.57288e-014 1.35174e-014
rhumerus -30.4448 -8.18392 -79.4491
rradius 27.8847
rwrist 8.10286
rhand -12.3828 11.3551
rfingers 7.12502
rthumb 13.6881 -18.1748
lclavicle 1.57288e-014 1.35174e-014
lhumerus -30.7653 3.16224 85.3019
lradius 32.1816
lwrist -11.5368
lhand -10.42 25.6935
lfingers 7.12502
lthumb 15.5791 55.0861
rfemur -2.41928 1.95405 30.324
rtibia 17.8115
rfoot -10.0191 -0.125038
rtoes 10.7068
lfemur -24.2379 7.58643 -14.7342
ltibia 68.9829
lfoot 0.0480759 0.193776
ltoes -0.356934
72
root 0.632901 17.6515 -13.6365 -1.73321 -3.67209 -4.15693
lowerback 7.58865 0.561725 2.49941
upperback 1.20246 1.0502 3.07739
thorax -3.02533 0.508266 1.6712
lowerneck -14.296 -2.54082 -9.78199
upperneck 22.9728 -2.35848 4.94628
head 9.82964 -1.38981 3.08071
rclavicle -3.05631e-015 1.63003e-014
rhumerus -30.1055 -7.44386 -79.8782
rradius 28.072
rwrist 6.39683
rhand -12.1572 11.7712
rfingers 7.12502
rthumb 13.9055 -17.7439
lclavicle -3.05631e-015 1.63003e-014
lhumerus -31.0963 3.21738 85.2907
lradius 31.9027
lwrist -11.4268
lhand -10.3193 25.8439
lfingers 7.12502
lthumb 15.6761 55.2289
rfemur -2.11818 1.81599 30.5047
rtibia 18.2299
rfoot -10.6394 -0.323525
rtoes 11.9843
lfemur -25.4471 7.24456 -14.6614
ltibia 68.2423
lfoot -1.24411 -0.0753782
ltoes 0.174921
73
root 0.631344 17.623 -13.4836 -1.55601 -3.67402 -4.42004
lowerback 7.77197 0.602612 2.85324
upperback 1.12511 1.14412 3.02661
thorax -3.20091 0.549249 1.40863
lowerneck -14.4796 -2.53618 -9.69513
upperneck 22.9817 -2.35336 4.94396
head 9.8656 -1.37803 3.06575
rclavicle -5.26779e-015 -1.63003e-014
rhumerus -29.5556 -7.16727 -80.0016
rradius 29.3297
rwrist 9.14382
rhand -12.3786 10.6604
rfingers 7.12502
rthumb 13.6922 -18.8692
lclavicle -5.26779e-015 -1.63003e-014
lhumerus -31.3938 3.16812 85.2814
lradius 31.7456
lwrist -11.1602
lhand -10.3184 26.0663
lfingers 7.12502
lthumb 15.677 55.4512
rfemur -1.92482 1.82141 30.8032
rtibia 18.6526
rfoot -11.4142 -0.498923
rtoes 11.727
lfemur -26.6002 7.06397 -14.4696
ltibia 67.3568
lfoot -2.15202 -0.233154
ltoes 0.82176
74
root 0.627419 17.5994 -13.3352 -1.33535 -3.64216 -4.68088
lowerback 7.99323 0.628153 3.08813
upperback 0.996911 1.21666 3.06468
thorax -3.45387 0.579817 1.30628
lowerneck -14.666 -2.57947 -9.81367
upperneck 23.1681 -2.37217 4.96311
head 9.97178 -1.39611 3.09299
rclavicle -1.16041e-014 9.54166e-015
rhumerus -29.0464 -5.84141 -80.5594
rradius 29.0705
rwrist 5.30259
rhand -14.2541 13.8132
rfingers 7.12502
rthumb 11.8841 -15.8295
lclavicle -1.16041e-014 9.54166e-015
lhumerus -31.8204 3.21947 85.3561
lradius 31.6452
lwrist -11.1933
lhand -9.76575 27.4058
lfingers 7.12502
lthumb 16.2092 56.7481
rfemur -1.74257 1.83041 31.1111
rtibia 18.9754
rfoot -12.1542 -0.634457
rtoes 11.0112
lfemur -27.7257 6.93294 -14.2817
ltibia 66.2764
lfoot -2.73482 -0.239515
ltoes 0.998504
75
root 0.629532 17.5771 -13.1767 -1.10301 -3.6341 -4.81117
lowerback 8.02377 0.666018 3.1803
upperback 0.932171 1.28286 3.14796
thorax -3.53829 0.610852 1.33343
lowerneck -14.8872 -2.55522 -9.91368
upperneck 23.1568 -2.25918 4.85315
head 10.0019 -1.36226 3.08461
rclavicle 4.22417e-015 1.70955e-014
rhumerus -28.4549 -5.23472 -80.5639
rradius 29.7879
rwrist 5.86414
rhand -13.7397 12.4954
rfingers 7.12502
rthumb 12.38 -17.118
lclavicle 4.22417e-015 1.70955e-014
lhumerus -32.1766 3.54936 85.5066
lradius 31.4183
lwrist -11.5148
lhand -9.58975 27.4862
lfingers 7.12502
lthumb 16.3787 56.8147
rfemur -1.48208 1.8257 31.2364
rtibia 19.1574
rfoot -12.7472 -0.706288
rtoes 10.7765
lfemur -28.7439 6.70105 -14.2652
ltibia 64.9144
lfoot -3.35387 0.0392467
ltoes 0.802177
76
root 0.635616 17.5541 -13.0059 -1.14158 -3.95131 -4.98593
lowerback 8.19417 0.774903 3.45304
upperback 1.07072 1.45453 3.1557
thorax -3.48318 0.693271 1.16838
lowerneck -15.3492 -2.51543 -9.81391
upperneck 23.0294 -2.11864 4.62765
head 10.0298 -1.30679 3.00264
rclavicle 4.96962e-017 -1.90833e-014
rhumerus -27.6181 -4.79232 -80.6351
rradius 30.3498
rwrist 6.44547
rhand -14.0415 12.1169
rfingers 7.12502
rthumb 12.0891 -17.5139
lclavicle 4.96962e-017 -1.90833e-014
lhumerus -32.2481 3.85476 85.5415
lradius 30.9916
lwrist -11.8002
lhand -9.91877 26.7154
lfingers 7.12502
lthumb 16.0619 56.0697
rfemur -0.771405 1.99667 31.4069
rtibia 19.1827
rfoot -13.3081 -0.677664
rtoes 11.3893
lfemur -29.2601 6.60159 -14.1242
ltibia 63.2967
lfoot -3.85262 0.485964
ltoes 1.58191
77
root 0.644177 17.5372 -12.8338 -1.09589 -4.19316 -5.09125
lowerback 8.17128 0.876911 3.69932
upperback 1.13175 1.60583 3.11714
thorax -3.39848 0.766129 0.974711
lowerneck -15.2305 -2.51896 -9.82511
upperneck 22.7656 -2.1122 4.56233
head 9.91234 -1.30801 2.97769
rclavicle -6.4605e-016 -2.38542e-015
rhumerus -26.9158 -4.1738 -80.812
rradius 30.4803
rwrist 5.38288
rhand -13.8362 12.3051
rfingers 7.12502
rthumb 12.287 -17.314
lclavicle -6.4605e-016 -2.38542e-015
lhumerus -32.4396 4.07142 85.5551
lradius 30.5646
lwrist -12.0999
lhand -9.75302 26.6474
lfingers 7.12502
lthumb 16.2215 55.9887
rfemur -0.105703 2.05342 31.4716
rtibia 19.1092
rfoot -13.8343 -0.615942
rtoes 11.4328
lfemur -29.8012 6.31893 -14.0759
ltibia 61.4501
lfoot -4.59286 1.02407
ltoes 1.98732
78
root 0.651218 17.5228 -12.6693 -0.827319 -4.2893 -5.34406
lowerback 7.99644 0.9593 4.08176
upperback 1.06497 1.73975 3.081
thorax -3.35649 0.827608 0.711674
lowerneck -14.8526 -2.46872 -9.66636
upperneck 22.4289 -2.1136 4.54589
head 9.7181 -1.29384 2.94029
rclavicle 7.28049e-015 3.18055e-014
rhumerus -26.4664 -3.98873 -80.8566
rradius 31.1061
rwrist 5.76418
rhand -13.1916 11.9132
rfingers 7.12502
rthumb 12.9085 -17.6676
lclavicle 7.28049e-015 3.18055e-014
lhumerus -32.8599 3.96396 85.5819
lradius 30.3698
lwrist -12.3459
lhand -10.0246 26.0151
lfingers 7.12502
lthumb 15.96 55.3776
rfemur 0.333964 2.02831 31.6912
rtibia 18.9292
rfoot -14.2675 -0.516768
rtoes 10.7736
lfemur -30.5443 5.9416 -13.865
ltibia 59.4487
lfoot -6.27402 1.38474
ltoes -1.46909
79
root 0.654899 17.5093 -12.5078 -0.540794 -4.43384 -5.7212
lowerback 7.93842 1.03649 4.49754
upperback 0.989644 1.88058 3.14779
thorax -3.38915 0.891177 0.53456
lowerneck -14.7015 -2.43114 -9.70757
upperneck 22.2491 -2.07563 4.59653
head 9.62379 -1.27193 2.96735
rclavicle 9.34288e-015 9.93923e-015
rhumerus -25.9353 -3.44324 -80.9686
rradius 31.5179
rwrist 4.82922
rhand -14.1686 15.7579
rfingers 7.12502
rthumb 11.9666 -13.8801
lclavicle 9.34288e-015 9.93923e-015
lhumerus -33.1901 4.17515 85.6358
lradius 30.0098
lwrist -12.7494
lhand -10.7479 25.4018
lfingers 7.12502
lthumb 15.2633 54.8187
rfemur 0.798394 2.1711 32.0948
rtibia 18.6543
rfoot -14.6507 -0.608582
rtoes 9.84839
lfemur -31.1913 5.67306 -13.4617
ltibia 57.3069
lfoot -6.39553 2.15826
ltoes -1.97272
80
root 0.659188 17.4929 -12.3395 -0.368254 -4.535 -5.77519
lowerback 7.97244 1.07223 4.50798
upperback 0.96856 1.93445 3.20197
thorax -3.43052 0.917126 0.57837
lowerneck -14.7717 -2.43641 -9.83753
upperneck 22.1552 -2.02691 4.54015
head 9.60215 -1.2639 2.97365
rclavicle 1.04859e-014 3.1408e-014
rhumerus -25.2185 -2.66047 -81.0439
rradius 31.722
rwrist 3.9297
rhand -10.9802 9.99072
rfingers 7.12502
rthumb 15.0396 -19.443
lclavicle 1.04859e-014 3.1408e-014
lhumerus -33.3778 4.59696 85.7191
lradius 29.5288
lwrist -12.8584
lhand -10.6422 25.8722
lfingers 7.12502
lthumb 15.3652 55.2813
rfemur 1.42316 2.1647 32.1263
rtibia 18.3163
rfoot -14.9868 -0.631216
rtoes 9.48277
lfemur -31.5825 5.20523 -13.3847
ltibia 55.0169
lfoot -6.50099 3.11147
ltoes -3.71677
